<?xml version="1.0" encoding="UTF-8"?>
<svg width="51px" height="174px" viewBox="0 0 51 174" version="1.1" xmlns="http://www.w3.org/2000/svg" xmlns:xlink="http://www.w3.org/1999/xlink">
    <!-- Generator: Sketch 63 (92445) - https://sketch.com/ -->
    <title>Group 2 Copy 2</title>
    <desc>Created with Sketch.</desc>
    <g id="Page-1" stroke="none" stroke-width="1" fill="none" fill-rule="evenodd" opacity="0.405715216">
        <g id="Landing-Page" transform="translate(-491.000000, -2312.000000)" fill="#EF4123">
            <g id="Group-33" transform="translate(0.000000, 1876.000000)">
                <g id="Group-2-Copy-2" transform="translate(517.000000, 523.000000) rotate(-90.000000) translate(-517.000000, -523.000000) translate(430.000000, 497.000000)">
                    <g id="Group-Copy-3" transform="translate(0.000000, 0.000000)">
                        <rect id="Rectangle" x="10.0794267" y="0" width="2.64974619" height="2.63793103"></rect>
                        <rect id="Rectangle-Copy" x="30.2382801" y="0" width="2.64974619" height="2.63793103"></rect>
                        <rect id="Rectangle-Copy-2" x="50.3971335" y="0" width="2.64974619" height="2.63793103"></rect>
                        <rect id="Rectangle-Copy-3" x="70.5559869" y="0" width="2.64974619" height="2.63793103"></rect>
                        <rect id="Rectangle-Copy-5" x="110.873694" y="0" width="2.64974619" height="2.63793103"></rect>
                        <rect id="Rectangle-Copy-6" x="131.032547" y="0" width="2.64974619" height="2.63793103"></rect>
                        <rect id="Rectangle-Copy-7" x="151.1914" y="0" width="2.64974619" height="2.63793103"></rect>
                        <rect id="Rectangle-Copy-8" x="171.350254" y="0" width="2.64974619" height="2.63793103"></rect>
                        <rect id="Rectangle-Copy-4" x="90.7148403" y="0" width="2.64974619" height="2.63793103"></rect>
                        <ellipse id="Oval" cx="1.3248731" cy="1.31896552" rx="1.3248731" ry="1.31896552"></ellipse>
                        <ellipse id="Oval-Copy" cx="21.4837265" cy="1.31896552" rx="1.3248731" ry="1.31896552"></ellipse>
                        <ellipse id="Oval-Copy-2" cx="41.6425799" cy="1.31896552" rx="1.3248731" ry="1.31896552"></ellipse>
                        <ellipse id="Oval-Copy-3" cx="61.8014333" cy="1.31896552" rx="1.3248731" ry="1.31896552"></ellipse>
                        <ellipse id="Oval-Copy-4" cx="81.9602867" cy="1.31896552" rx="1.3248731" ry="1.31896552"></ellipse>
                        <ellipse id="Oval-Copy-5" cx="102.11914" cy="1.31896552" rx="1.3248731" ry="1.31896552"></ellipse>
                        <ellipse id="Oval-Copy-6" cx="122.277993" cy="1.31896552" rx="1.3248731" ry="1.31896552"></ellipse>
                        <ellipse id="Oval-Copy-7" cx="142.436847" cy="1.31896552" rx="1.3248731" ry="1.31896552"></ellipse>
                        <ellipse id="Oval-Copy-8" cx="162.5957" cy="1.31896552" rx="1.3248731" ry="1.31896552"></ellipse>
                    </g>
                    <g id="Group-Copy-6" transform="translate(0.000000, 29.017241)">
                        <rect id="Rectangle" x="10.0794267" y="0" width="2.64974619" height="2.63793103"></rect>
                        <rect id="Rectangle-Copy" x="30.2382801" y="0" width="2.64974619" height="2.63793103"></rect>
                        <rect id="Rectangle-Copy-2" x="50.3971335" y="0" width="2.64974619" height="2.63793103"></rect>
                        <rect id="Rectangle-Copy-3" x="70.5559869" y="0" width="2.64974619" height="2.63793103"></rect>
                        <rect id="Rectangle-Copy-5" x="110.873694" y="0" width="2.64974619" height="2.63793103"></rect>
                        <rect id="Rectangle-Copy-6" x="131.032547" y="0" width="2.64974619" height="2.63793103"></rect>
                        <rect id="Rectangle-Copy-7" x="151.1914" y="0" width="2.64974619" height="2.63793103"></rect>
                        <rect id="Rectangle-Copy-8" x="171.350254" y="0" width="2.64974619" height="2.63793103"></rect>
                        <rect id="Rectangle-Copy-4" x="90.7148403" y="0" width="2.64974619" height="2.63793103"></rect>
                        <ellipse id="Oval" cx="1.3248731" cy="1.31896552" rx="1.3248731" ry="1.31896552"></ellipse>
                        <ellipse id="Oval-Copy" cx="21.4837265" cy="1.31896552" rx="1.3248731" ry="1.31896552"></ellipse>
                        <ellipse id="Oval-Copy-2" cx="41.6425799" cy="1.31896552" rx="1.3248731" ry="1.31896552"></ellipse>
                        <ellipse id="Oval-Copy-3" cx="61.8014333" cy="1.31896552" rx="1.3248731" ry="1.31896552"></ellipse>
                        <ellipse id="Oval-Copy-4" cx="81.9602867" cy="1.31896552" rx="1.3248731" ry="1.31896552"></ellipse>
                        <ellipse id="Oval-Copy-5" cx="102.11914" cy="1.31896552" rx="1.3248731" ry="1.31896552"></ellipse>
                        <ellipse id="Oval-Copy-6" cx="122.277993" cy="1.31896552" rx="1.3248731" ry="1.31896552"></ellipse>
                        <ellipse id="Oval-Copy-7" cx="142.436847" cy="1.31896552" rx="1.3248731" ry="1.31896552"></ellipse>
                        <ellipse id="Oval-Copy-8" cx="162.5957" cy="1.31896552" rx="1.3248731" ry="1.31896552"></ellipse>
                    </g>
                    <g id="Group-Copy-4" transform="translate(0.000000, 19.344828)">
                        <rect id="Rectangle" x="10.0794267" y="0" width="2.64974619" height="2.63793103"></rect>
                        <rect id="Rectangle-Copy" x="30.2382801" y="0" width="2.64974619" height="2.63793103"></rect>
                        <rect id="Rectangle-Copy-2" x="50.3971335" y="0" width="2.64974619" height="2.63793103"></rect>
                        <rect id="Rectangle-Copy-3" x="70.5559869" y="0" width="2.64974619" height="2.63793103"></rect>
                        <rect id="Rectangle-Copy-5" x="110.873694" y="0" width="2.64974619" height="2.63793103"></rect>
                        <rect id="Rectangle-Copy-6" x="131.032547" y="0" width="2.64974619" height="2.63793103"></rect>
                        <rect id="Rectangle-Copy-7" x="151.1914" y="0" width="2.64974619" height="2.63793103"></rect>
                        <rect id="Rectangle-Copy-8" x="171.350254" y="0" width="2.64974619" height="2.63793103"></rect>
                        <rect id="Rectangle-Copy-4" x="90.7148403" y="0" width="2.64974619" height="2.63793103"></rect>
                        <ellipse id="Oval" cx="1.3248731" cy="1.31896552" rx="1.3248731" ry="1.31896552"></ellipse>
                        <ellipse id="Oval-Copy" cx="21.4837265" cy="1.31896552" rx="1.3248731" ry="1.31896552"></ellipse>
                        <ellipse id="Oval-Copy-2" cx="41.6425799" cy="1.31896552" rx="1.3248731" ry="1.31896552"></ellipse>
                        <ellipse id="Oval-Copy-3" cx="61.8014333" cy="1.31896552" rx="1.3248731" ry="1.31896552"></ellipse>
                        <ellipse id="Oval-Copy-4" cx="81.9602867" cy="1.31896552" rx="1.3248731" ry="1.31896552"></ellipse>
                        <ellipse id="Oval-Copy-5" cx="102.11914" cy="1.31896552" rx="1.3248731" ry="1.31896552"></ellipse>
                        <ellipse id="Oval-Copy-6" cx="122.277993" cy="1.31896552" rx="1.3248731" ry="1.31896552"></ellipse>
                        <ellipse id="Oval-Copy-7" cx="142.436847" cy="1.31896552" rx="1.3248731" ry="1.31896552"></ellipse>
                        <ellipse id="Oval-Copy-8" cx="162.5957" cy="1.31896552" rx="1.3248731" ry="1.31896552"></ellipse>
                    </g>
                    <g id="Group-Copy-7" transform="translate(0.000000, 48.362069)">
                        <rect id="Rectangle" x="10.0794267" y="0" width="2.64974619" height="2.63793103"></rect>
                        <rect id="Rectangle-Copy" x="30.2382801" y="0" width="2.64974619" height="2.63793103"></rect>
                        <rect id="Rectangle-Copy-2" x="50.3971335" y="0" width="2.64974619" height="2.63793103"></rect>
                        <rect id="Rectangle-Copy-3" x="70.5559869" y="0" width="2.64974619" height="2.63793103"></rect>
                        <rect id="Rectangle-Copy-5" x="110.873694" y="0" width="2.64974619" height="2.63793103"></rect>
                        <rect id="Rectangle-Copy-6" x="131.032547" y="0" width="2.64974619" height="2.63793103"></rect>
                        <rect id="Rectangle-Copy-7" x="151.1914" y="0" width="2.64974619" height="2.63793103"></rect>
                        <rect id="Rectangle-Copy-8" x="171.350254" y="0" width="2.64974619" height="2.63793103"></rect>
                        <rect id="Rectangle-Copy-4" x="90.7148403" y="0" width="2.64974619" height="2.63793103"></rect>
                        <ellipse id="Oval" cx="1.3248731" cy="1.31896552" rx="1.3248731" ry="1.31896552"></ellipse>
                        <ellipse id="Oval-Copy" cx="21.4837265" cy="1.31896552" rx="1.3248731" ry="1.31896552"></ellipse>
                        <ellipse id="Oval-Copy-2" cx="41.6425799" cy="1.31896552" rx="1.3248731" ry="1.31896552"></ellipse>
                        <ellipse id="Oval-Copy-3" cx="61.8014333" cy="1.31896552" rx="1.3248731" ry="1.31896552"></ellipse>
                        <ellipse id="Oval-Copy-4" cx="81.9602867" cy="1.31896552" rx="1.3248731" ry="1.31896552"></ellipse>
                        <ellipse id="Oval-Copy-5" cx="102.11914" cy="1.31896552" rx="1.3248731" ry="1.31896552"></ellipse>
                        <ellipse id="Oval-Copy-6" cx="122.277993" cy="1.31896552" rx="1.3248731" ry="1.31896552"></ellipse>
                        <ellipse id="Oval-Copy-7" cx="142.436847" cy="1.31896552" rx="1.3248731" ry="1.31896552"></ellipse>
                        <ellipse id="Oval-Copy-8" cx="162.5957" cy="1.31896552" rx="1.3248731" ry="1.31896552"></ellipse>
                    </g>
                    <g id="Group-Copy-5" transform="translate(0.000000, 9.672414)">
                        <rect id="Rectangle" x="10.0794267" y="0" width="2.64974619" height="2.63793103"></rect>
                        <rect id="Rectangle-Copy" x="30.2382801" y="0" width="2.64974619" height="2.63793103"></rect>
                        <rect id="Rectangle-Copy-2" x="50.3971335" y="0" width="2.64974619" height="2.63793103"></rect>
                        <rect id="Rectangle-Copy-3" x="70.5559869" y="0" width="2.64974619" height="2.63793103"></rect>
                        <rect id="Rectangle-Copy-5" x="110.873694" y="0" width="2.64974619" height="2.63793103"></rect>
                        <rect id="Rectangle-Copy-6" x="131.032547" y="0" width="2.64974619" height="2.63793103"></rect>
                        <rect id="Rectangle-Copy-7" x="151.1914" y="0" width="2.64974619" height="2.63793103"></rect>
                        <rect id="Rectangle-Copy-8" x="171.350254" y="0" width="2.64974619" height="2.63793103"></rect>
                        <rect id="Rectangle-Copy-4" x="90.7148403" y="0" width="2.64974619" height="2.63793103"></rect>
                        <ellipse id="Oval" cx="1.3248731" cy="1.31896552" rx="1.3248731" ry="1.31896552"></ellipse>
                        <ellipse id="Oval-Copy" cx="21.4837265" cy="1.31896552" rx="1.3248731" ry="1.31896552"></ellipse>
                        <ellipse id="Oval-Copy-2" cx="41.6425799" cy="1.31896552" rx="1.3248731" ry="1.31896552"></ellipse>
                        <ellipse id="Oval-Copy-3" cx="61.8014333" cy="1.31896552" rx="1.3248731" ry="1.31896552"></ellipse>
                        <ellipse id="Oval-Copy-4" cx="81.9602867" cy="1.31896552" rx="1.3248731" ry="1.31896552"></ellipse>
                        <ellipse id="Oval-Copy-5" cx="102.11914" cy="1.31896552" rx="1.3248731" ry="1.31896552"></ellipse>
                        <ellipse id="Oval-Copy-6" cx="122.277993" cy="1.31896552" rx="1.3248731" ry="1.31896552"></ellipse>
                        <ellipse id="Oval-Copy-7" cx="142.436847" cy="1.31896552" rx="1.3248731" ry="1.31896552"></ellipse>
                        <ellipse id="Oval-Copy-8" cx="162.5957" cy="1.31896552" rx="1.3248731" ry="1.31896552"></ellipse>
                    </g>
                    <g id="Group-Copy-8" transform="translate(0.000000, 38.689655)">
                        <rect id="Rectangle" x="10.0794267" y="0" width="2.64974619" height="2.63793103"></rect>
                        <rect id="Rectangle-Copy" x="30.2382801" y="0" width="2.64974619" height="2.63793103"></rect>
                        <rect id="Rectangle-Copy-2" x="50.3971335" y="0" width="2.64974619" height="2.63793103"></rect>
                        <rect id="Rectangle-Copy-3" x="70.5559869" y="0" width="2.64974619" height="2.63793103"></rect>
                        <rect id="Rectangle-Copy-5" x="110.873694" y="0" width="2.64974619" height="2.63793103"></rect>
                        <rect id="Rectangle-Copy-6" x="131.032547" y="0" width="2.64974619" height="2.63793103"></rect>
                        <rect id="Rectangle-Copy-7" x="151.1914" y="0" width="2.64974619" height="2.63793103"></rect>
                        <rect id="Rectangle-Copy-8" x="171.350254" y="0" width="2.64974619" height="2.63793103"></rect>
                        <rect id="Rectangle-Copy-4" x="90.7148403" y="0" width="2.64974619" height="2.63793103"></rect>
                        <ellipse id="Oval" cx="1.3248731" cy="1.31896552" rx="1.3248731" ry="1.31896552"></ellipse>
                        <ellipse id="Oval-Copy" cx="21.4837265" cy="1.31896552" rx="1.3248731" ry="1.31896552"></ellipse>
                        <ellipse id="Oval-Copy-2" cx="41.6425799" cy="1.31896552" rx="1.3248731" ry="1.31896552"></ellipse>
                        <ellipse id="Oval-Copy-3" cx="61.8014333" cy="1.31896552" rx="1.3248731" ry="1.31896552"></ellipse>
                        <ellipse id="Oval-Copy-4" cx="81.9602867" cy="1.31896552" rx="1.3248731" ry="1.31896552"></ellipse>
                        <ellipse id="Oval-Copy-5" cx="102.11914" cy="1.31896552" rx="1.3248731" ry="1.31896552"></ellipse>
                        <ellipse id="Oval-Copy-6" cx="122.277993" cy="1.31896552" rx="1.3248731" ry="1.31896552"></ellipse>
                        <ellipse id="Oval-Copy-7" cx="142.436847" cy="1.31896552" rx="1.3248731" ry="1.31896552"></ellipse>
                        <ellipse id="Oval-Copy-8" cx="162.5957" cy="1.31896552" rx="1.3248731" ry="1.31896552"></ellipse>
                    </g>
                </g>
            </g>
        </g>
    </g>
</svg>